<svg width="43" height="59" viewBox="0 0 43 59" fill="none" xmlns="http://www.w3.org/2000/svg">
<path d="M4.832 21.192C4.01067 21.192 3.29067 21.048 2.672 20.76C2.05333 20.472 1.568 20.0613 1.216 19.528C0.874667 18.9947 0.698667 18.36 0.688 17.624H2.48C2.49067 18.2213 2.69867 18.728 3.104 19.144C3.50933 19.56 4.08 19.768 4.816 19.768C5.46667 19.768 5.97333 19.6133 6.336 19.304C6.70933 18.984 6.896 18.5787 6.896 18.088C6.896 17.6933 6.80533 17.3733 6.624 17.128C6.45333 16.8827 6.21333 16.68 5.904 16.52C5.60533 16.36 5.25867 16.216 4.864 16.088C4.46933 15.96 4.05333 15.8213 3.616 15.672C2.752 15.384 2.10133 15.0107 1.664 14.552C1.23733 14.0933 1.024 13.4907 1.024 12.744C1.01333 12.1147 1.15733 11.5653 1.456 11.096C1.76533 10.6267 2.192 10.264 2.736 10.008C3.29067 9.74133 3.936 9.608 4.672 9.608C5.39733 9.608 6.032 9.74133 6.576 10.008C7.13067 10.2747 7.56267 10.648 7.872 11.128C8.18133 11.5973 8.34133 12.1467 8.352 12.776H6.56C6.56 12.488 6.48533 12.216 6.336 11.96C6.18667 11.6933 5.968 11.4747 5.68 11.304C5.392 11.1333 5.04 11.048 4.624 11.048C4.09067 11.0373 3.648 11.1707 3.296 11.448C2.95467 11.7253 2.784 12.1093 2.784 12.6C2.784 13.0373 2.912 13.3733 3.168 13.608C3.424 13.8427 3.776 14.04 4.224 14.2C4.672 14.3493 5.184 14.5253 5.76 14.728C6.31467 14.9093 6.81067 15.128 7.248 15.384C7.68533 15.64 8.032 15.976 8.288 16.392C8.55467 16.808 8.688 17.336 8.688 17.976C8.688 18.5413 8.544 19.0693 8.256 19.56C7.968 20.04 7.536 20.4347 6.96 20.744C6.384 21.0427 5.67467 21.192 4.832 21.192ZM10.5423 21V9.8H12.2383V14.6H17.6623V9.8H19.3583V21H17.6623V15.992H12.2383V21H10.5423ZM26.804 21.192C25.6947 21.192 24.724 20.9467 23.892 20.456C23.06 19.9653 22.4093 19.288 21.94 18.424C21.4707 17.5493 21.236 16.5413 21.236 15.4C21.236 14.2587 21.4707 13.256 21.94 12.392C22.4093 11.5173 23.06 10.8347 23.892 10.344C24.724 9.85333 25.6947 9.608 26.804 9.608C27.9133 9.608 28.884 9.85333 29.716 10.344C30.548 10.8347 31.1933 11.5173 31.652 12.392C32.1213 13.256 32.356 14.2587 32.356 15.4C32.356 16.5413 32.1213 17.5493 31.652 18.424C31.1933 19.288 30.548 19.9653 29.716 20.456C28.884 20.9467 27.9133 21.192 26.804 21.192ZM26.804 19.672C27.572 19.672 28.2387 19.5013 28.804 19.16C29.38 18.8187 29.828 18.328 30.148 17.688C30.468 17.048 30.628 16.2853 30.628 15.4C30.628 14.5147 30.468 13.752 30.148 13.112C29.828 12.472 29.38 11.9813 28.804 11.64C28.2387 11.2987 27.572 11.128 26.804 11.128C26.036 11.128 25.364 11.2987 24.788 11.64C24.212 11.9813 23.764 12.472 23.444 13.112C23.1347 13.752 22.98 14.5147 22.98 15.4C22.98 16.2853 23.1347 17.048 23.444 17.688C23.764 18.328 24.212 18.8187 24.788 19.16C25.364 19.5013 26.036 19.672 26.804 19.672ZM34.2454 21V9.8H38.1654C39.04 9.8 39.7654 9.94933 40.3414 10.248C40.9174 10.536 41.344 10.936 41.6214 11.448C41.9094 11.9493 42.0534 12.52 42.0534 13.16C42.0534 13.768 41.9147 14.328 41.6374 14.84C41.3707 15.3413 40.9494 15.7413 40.3734 16.04C39.7974 16.3387 39.0614 16.488 38.1654 16.488H35.9414V21H34.2454ZM35.9414 15.096H38.0854C38.8854 15.096 39.456 14.9253 39.7974 14.584C40.1494 14.232 40.3254 13.7573 40.3254 13.16C40.3254 12.5413 40.1494 12.0613 39.7974 11.72C39.456 11.368 38.8854 11.192 38.0854 11.192H35.9414V15.096Z" fill="black"/>
<line x1="-8.74228e-08" y1="58" x2="39" y2="58" stroke="black" stroke-width="2"/>
</svg>
