<svg width="43" height="13" viewBox="0 0 43 13" fill="none" xmlns="http://www.w3.org/2000/svg">
<path d="M4.832 12.192C4.01067 12.192 3.29067 12.048 2.672 11.76C2.05333 11.472 1.568 11.0613 1.216 10.528C0.874667 9.99467 0.698667 9.36 0.688 8.624H2.48C2.49067 9.22133 2.69867 9.728 3.104 10.144C3.50933 10.56 4.08 10.768 4.816 10.768C5.46667 10.768 5.97333 10.6133 6.336 10.304C6.70933 9.984 6.896 9.57867 6.896 9.088C6.896 8.69333 6.80533 8.37333 6.624 8.128C6.45333 7.88267 6.21333 7.68 5.904 7.52C5.60533 7.36 5.25867 7.216 4.864 7.088C4.46933 6.96 4.05333 6.82133 3.616 6.672C2.752 6.384 2.10133 6.01067 1.664 5.552C1.23733 5.09333 1.024 4.49067 1.024 3.744C1.01333 3.11467 1.15733 2.56533 1.456 2.096C1.76533 1.62667 2.192 1.264 2.736 1.008C3.29067 0.741333 3.936 0.608 4.672 0.608C5.39733 0.608 6.032 0.741333 6.576 1.008C7.13067 1.27467 7.56267 1.648 7.872 2.128C8.18133 2.59733 8.34133 3.14667 8.352 3.776H6.56C6.56 3.488 6.48533 3.216 6.336 2.96C6.18667 2.69333 5.968 2.47467 5.68 2.304C5.392 2.13333 5.04 2.048 4.624 2.048C4.09067 2.03733 3.648 2.17067 3.296 2.448C2.95467 2.72533 2.784 3.10933 2.784 3.6C2.784 4.03733 2.912 4.37333 3.168 4.608C3.424 4.84267 3.776 5.04 4.224 5.2C4.672 5.34933 5.184 5.52533 5.76 5.728C6.31467 5.90933 6.81067 6.128 7.248 6.384C7.68533 6.64 8.032 6.976 8.288 7.392C8.55467 7.808 8.688 8.336 8.688 8.976C8.688 9.54133 8.544 10.0693 8.256 10.56C7.968 11.04 7.536 11.4347 6.96 11.744C6.384 12.0427 5.67467 12.192 4.832 12.192ZM10.5423 12V0.799999H12.2383V5.6H17.6623V0.799999H19.3583V12H17.6623V6.992H12.2383V12H10.5423ZM26.804 12.192C25.6947 12.192 24.724 11.9467 23.892 11.456C23.06 10.9653 22.4093 10.288 21.94 9.424C21.4707 8.54933 21.236 7.54133 21.236 6.4C21.236 5.25867 21.4707 4.256 21.94 3.392C22.4093 2.51733 23.06 1.83467 23.892 1.344C24.724 0.853333 25.6947 0.608 26.804 0.608C27.9133 0.608 28.884 0.853333 29.716 1.344C30.548 1.83467 31.1933 2.51733 31.652 3.392C32.1213 4.256 32.356 5.25867 32.356 6.4C32.356 7.54133 32.1213 8.54933 31.652 9.424C31.1933 10.288 30.548 10.9653 29.716 11.456C28.884 11.9467 27.9133 12.192 26.804 12.192ZM26.804 10.672C27.572 10.672 28.2387 10.5013 28.804 10.16C29.38 9.81867 29.828 9.328 30.148 8.688C30.468 8.048 30.628 7.28533 30.628 6.4C30.628 5.51467 30.468 4.752 30.148 4.112C29.828 3.472 29.38 2.98133 28.804 2.64C28.2387 2.29867 27.572 2.128 26.804 2.128C26.036 2.128 25.364 2.29867 24.788 2.64C24.212 2.98133 23.764 3.472 23.444 4.112C23.1347 4.752 22.98 5.51467 22.98 6.4C22.98 7.28533 23.1347 8.048 23.444 8.688C23.764 9.328 24.212 9.81867 24.788 10.16C25.364 10.5013 26.036 10.672 26.804 10.672ZM34.2454 12V0.799999H38.1654C39.04 0.799999 39.7654 0.949333 40.3414 1.248C40.9174 1.536 41.344 1.936 41.6214 2.448C41.9094 2.94933 42.0534 3.52 42.0534 4.16C42.0534 4.768 41.9147 5.328 41.6374 5.84C41.3707 6.34133 40.9494 6.74133 40.3734 7.04C39.7974 7.33867 39.0614 7.488 38.1654 7.488H35.9414V12H34.2454ZM35.9414 6.096H38.0854C38.8854 6.096 39.456 5.92533 39.7974 5.584C40.1494 5.232 40.3254 4.75733 40.3254 4.16C40.3254 3.54133 40.1494 3.06133 39.7974 2.72C39.456 2.368 38.8854 2.192 38.0854 2.192H35.9414V6.096Z" fill="black"/>
</svg>
